<svg xmlns="http://www.w3.org/2000/svg" viewBox="0 0 600 400" fill="none" stroke-linecap="round" stroke-linejoin="round"><circle cx="30" cy="30" r="1.6" fill="#22305A"/><circle cx="30" cy="70" r="1.6" fill="#22305A"/><circle cx="30" cy="110" r="1.6" fill="#22305A"/><circle cx="30" cy="150" r="1.6" fill="#22305A"/><circle cx="30" cy="190" r="1.6" fill="#22305A"/><circle cx="30" cy="230" r="1.6" fill="#22305A"/><circle cx="30" cy="270" r="1.6" fill="#22305A"/><circle cx="30" cy="310" r="1.6" fill="#22305A"/><circle cx="30" cy="350" r="1.6" fill="#22305A"/><circle cx="30" cy="390" r="1.6" fill="#22305A"/><circle cx="70" cy="30" r="1.6" fill="#22305A"/><circle cx="70" cy="70" r="1.6" fill="#22305A"/><circle cx="70" cy="110" r="1.6" fill="#22305A"/><circle cx="70" cy="150" r="1.6" fill="#22305A"/><circle cx="70" cy="190" r="1.6" fill="#22305A"/><circle cx="70" cy="230" r="1.6" fill="#22305A"/><circle cx="70" cy="270" r="1.6" fill="#22305A"/><circle cx="70" cy="310" r="1.6" fill="#22305A"/><circle cx="70" cy="350" r="1.6" fill="#22305A"/><circle cx="70" cy="390" r="1.6" fill="#22305A"/><circle cx="110" cy="30" r="1.6" fill="#22305A"/><circle cx="110" cy="70" r="1.6" fill="#22305A"/><circle cx="110" cy="110" r="1.6" fill="#22305A"/><circle cx="110" cy="150" r="1.6" fill="#22305A"/><circle cx="110" cy="190" r="1.6" fill="#22305A"/><circle cx="110" cy="230" r="1.6" fill="#22305A"/><circle cx="110" cy="270" r="1.6" fill="#22305A"/><circle cx="110" cy="310" r="1.6" fill="#22305A"/><circle cx="110" cy="350" r="1.6" fill="#22305A"/><circle cx="110" cy="390" r="1.6" fill="#22305A"/><circle cx="150" cy="30" r="1.6" fill="#22305A"/><circle cx="150" cy="70" r="1.6" fill="#22305A"/><circle cx="150" cy="110" r="1.6" fill="#22305A"/><circle cx="150" cy="150" r="1.6" fill="#22305A"/><circle cx="150" cy="190" r="1.6" fill="#22305A"/><circle cx="150" cy="230" r="1.6" fill="#22305A"/><circle cx="150" cy="270" r="1.6" fill="#22305A"/><circle cx="150" cy="310" r="1.6" fill="#22305A"/><circle cx="150" cy="350" r="1.6" fill="#22305A"/><circle cx="150" cy="390" r="1.6" fill="#22305A"/><circle cx="190" cy="30" r="1.6" fill="#22305A"/><circle cx="190" cy="70" r="1.6" fill="#22305A"/><circle cx="190" cy="110" r="1.6" fill="#22305A"/><circle cx="190" cy="150" r="1.6" fill="#22305A"/><circle cx="190" cy="190" r="1.6" fill="#22305A"/><circle cx="190" cy="230" r="1.6" fill="#22305A"/><circle cx="190" cy="270" r="1.6" fill="#22305A"/><circle cx="190" cy="310" r="1.6" fill="#22305A"/><circle cx="190" cy="350" r="1.6" fill="#22305A"/><circle cx="190" cy="390" r="1.6" fill="#22305A"/><circle cx="230" cy="30" r="1.6" fill="#22305A"/><circle cx="230" cy="70" r="1.6" fill="#22305A"/><circle cx="230" cy="110" r="1.6" fill="#22305A"/><circle cx="230" cy="150" r="1.6" fill="#22305A"/><circle cx="230" cy="190" r="1.6" fill="#22305A"/><circle cx="230" cy="230" r="1.6" fill="#22305A"/><circle cx="230" cy="270" r="1.6" fill="#22305A"/><circle cx="230" cy="310" r="1.6" fill="#22305A"/><circle cx="230" cy="350" r="1.6" fill="#22305A"/><circle cx="230" cy="390" r="1.6" fill="#22305A"/><circle cx="270" cy="30" r="1.6" fill="#22305A"/><circle cx="270" cy="70" r="1.6" fill="#22305A"/><circle cx="270" cy="110" r="1.6" fill="#22305A"/><circle cx="270" cy="150" r="1.6" fill="#22305A"/><circle cx="270" cy="190" r="1.6" fill="#22305A"/><circle cx="270" cy="230" r="1.6" fill="#22305A"/><circle cx="270" cy="270" r="1.6" fill="#22305A"/><circle cx="270" cy="310" r="1.6" fill="#22305A"/><circle cx="270" cy="350" r="1.6" fill="#22305A"/><circle cx="270" cy="390" r="1.6" fill="#22305A"/><circle cx="310" cy="30" r="1.6" fill="#22305A"/><circle cx="310" cy="70" r="1.6" fill="#22305A"/><circle cx="310" cy="110" r="1.6" fill="#22305A"/><circle cx="310" cy="150" r="1.6" fill="#22305A"/><circle cx="310" cy="190" r="1.6" fill="#22305A"/><circle cx="310" cy="230" r="1.6" fill="#22305A"/><circle cx="310" cy="270" r="1.6" fill="#22305A"/><circle cx="310" cy="310" r="1.6" fill="#22305A"/><circle cx="310" cy="350" r="1.6" fill="#22305A"/><circle cx="310" cy="390" r="1.6" fill="#22305A"/><circle cx="350" cy="30" r="1.6" fill="#22305A"/><circle cx="350" cy="70" r="1.6" fill="#22305A"/><circle cx="350" cy="110" r="1.6" fill="#22305A"/><circle cx="350" cy="150" r="1.6" fill="#22305A"/><circle cx="350" cy="190" r="1.6" fill="#22305A"/><circle cx="350" cy="230" r="1.6" fill="#22305A"/><circle cx="350" cy="270" r="1.6" fill="#22305A"/><circle cx="350" cy="310" r="1.6" fill="#22305A"/><circle cx="350" cy="350" r="1.6" fill="#22305A"/><circle cx="350" cy="390" r="1.6" fill="#22305A"/><circle cx="390" cy="30" r="1.6" fill="#22305A"/><circle cx="390" cy="70" r="1.6" fill="#22305A"/><circle cx="390" cy="110" r="1.6" fill="#22305A"/><circle cx="390" cy="150" r="1.6" fill="#22305A"/><circle cx="390" cy="190" r="1.6" fill="#22305A"/><circle cx="390" cy="230" r="1.6" fill="#22305A"/><circle cx="390" cy="270" r="1.6" fill="#22305A"/><circle cx="390" cy="310" r="1.6" fill="#22305A"/><circle cx="390" cy="350" r="1.6" fill="#22305A"/><circle cx="390" cy="390" r="1.6" fill="#22305A"/><circle cx="430" cy="30" r="1.6" fill="#22305A"/><circle cx="430" cy="70" r="1.6" fill="#22305A"/><circle cx="430" cy="110" r="1.6" fill="#22305A"/><circle cx="430" cy="150" r="1.6" fill="#22305A"/><circle cx="430" cy="190" r="1.6" fill="#22305A"/><circle cx="430" cy="230" r="1.6" fill="#22305A"/><circle cx="430" cy="270" r="1.6" fill="#22305A"/><circle cx="430" cy="310" r="1.6" fill="#22305A"/><circle cx="430" cy="350" r="1.6" fill="#22305A"/><circle cx="430" cy="390" r="1.6" fill="#22305A"/><circle cx="470" cy="30" r="1.6" fill="#22305A"/><circle cx="470" cy="70" r="1.6" fill="#22305A"/><circle cx="470" cy="110" r="1.6" fill="#22305A"/><circle cx="470" cy="150" r="1.6" fill="#22305A"/><circle cx="470" cy="190" r="1.6" fill="#22305A"/><circle cx="470" cy="230" r="1.6" fill="#22305A"/><circle cx="470" cy="270" r="1.6" fill="#22305A"/><circle cx="470" cy="310" r="1.6" fill="#22305A"/><circle cx="470" cy="350" r="1.6" fill="#22305A"/><circle cx="470" cy="390" r="1.6" fill="#22305A"/><circle cx="510" cy="30" r="1.6" fill="#22305A"/><circle cx="510" cy="70" r="1.6" fill="#22305A"/><circle cx="510" cy="110" r="1.6" fill="#22305A"/><circle cx="510" cy="150" r="1.6" fill="#22305A"/><circle cx="510" cy="190" r="1.6" fill="#22305A"/><circle cx="510" cy="230" r="1.6" fill="#22305A"/><circle cx="510" cy="270" r="1.6" fill="#22305A"/><circle cx="510" cy="310" r="1.6" fill="#22305A"/><circle cx="510" cy="350" r="1.6" fill="#22305A"/><circle cx="510" cy="390" r="1.6" fill="#22305A"/><circle cx="550" cy="30" r="1.6" fill="#22305A"/><circle cx="550" cy="70" r="1.6" fill="#22305A"/><circle cx="550" cy="110" r="1.6" fill="#22305A"/><circle cx="550" cy="150" r="1.6" fill="#22305A"/><circle cx="550" cy="190" r="1.6" fill="#22305A"/><circle cx="550" cy="230" r="1.6" fill="#22305A"/><circle cx="550" cy="270" r="1.6" fill="#22305A"/><circle cx="550" cy="310" r="1.6" fill="#22305A"/><circle cx="550" cy="350" r="1.6" fill="#22305A"/><circle cx="550" cy="390" r="1.6" fill="#22305A"/><circle cx="590" cy="30" r="1.6" fill="#22305A"/><circle cx="590" cy="70" r="1.6" fill="#22305A"/><circle cx="590" cy="110" r="1.6" fill="#22305A"/><circle cx="590" cy="150" r="1.6" fill="#22305A"/><circle cx="590" cy="190" r="1.6" fill="#22305A"/><circle cx="590" cy="230" r="1.6" fill="#22305A"/><circle cx="590" cy="270" r="1.6" fill="#22305A"/><circle cx="590" cy="310" r="1.6" fill="#22305A"/><circle cx="590" cy="350" r="1.6" fill="#22305A"/><circle cx="590" cy="390" r="1.6" fill="#22305A"/>
<rect x="195" y="60" width="210" height="80" rx="6" fill="#0F1B3B" stroke="#4C66FF" stroke-width="6"/>
<rect x="130" y="140" width="340" height="130" rx="16" fill="#0F1B3B" stroke="#4C66FF" stroke-width="6"/>
<circle cx="420" cy="180" r="9" fill="#FFB000"/>
<rect x="200" y="235" width="200" height="110" rx="4" fill="#EEF1F8"/>
<path d="M225 265 h150 M225 290 h110 M225 315 h130" stroke="#A3ADC6" stroke-width="7"/>
<path d="M170 205 h70" stroke="#22305A" stroke-width="8"/>
<path d="M480 90 l8 -20 l8 20 l20 8 l-20 8 l-8 20 l-8 -20 l-20 -8 Z" fill="#FFB000"/></svg>